<svg width="55" height="55" viewBox="0 0 55 55" fill="none" xmlns="http://www.w3.org/2000/svg">
<path fill-rule="evenodd" clip-rule="evenodd" d="M18.4655 1.17042C24.4078 -0.223472 30.5922 -0.223473 36.5345 1.17042C45.1161 3.18338 51.8166 9.88393 53.8296 18.4655C55.2235 24.4078 55.2235 30.5922 53.8296 36.5345C51.8166 45.1161 45.1161 51.8166 36.5345 53.8296C30.5922 55.2235 24.4078 55.2235 18.4655 53.8296C9.88394 51.8166 3.18338 45.1161 1.17042 36.5345C-0.223474 30.5922 -0.223473 24.4078 1.17042 18.4655C3.18338 9.88392 9.88393 3.18338 18.4655 1.17042ZM31.647 21.4559C32.3293 20.7736 32.3293 19.6675 31.647 18.9852C30.9648 18.3029 29.8586 18.3029 29.1763 18.9852L21.897 26.2646C21.5693 26.5922 21.3853 27.0366 21.3853 27.4999C21.3853 27.9633 21.5693 28.4076 21.897 28.7353L29.1763 36.0146C29.8586 36.6969 30.9648 36.6969 31.647 36.0146C32.3293 35.3324 32.3293 34.2262 31.647 33.5439L25.603 27.4999L31.647 21.4559Z" fill="white"/>
</svg>
