<svg width="36" height="36" viewBox="0 0 36 36" fill="none" xmlns="http://www.w3.org/2000/svg">
<path d="M4.94482 0.5H10.8598C13.3273 0.5 15.3048 2.5125 15.3048 4.98175V10.9475C15.3048 13.4325 13.3273 15.4275 10.8598 15.4275H4.94482C2.49482 15.4275 0.499817 13.4325 0.499817 10.9475V4.98175C0.499817 2.5125 2.49482 0.5 4.94482 0.5Z" fill="#FF3E3E"/>
<path d="M4.94482 20.572H10.8598C13.3273 20.572 15.3048 22.5687 15.3048 25.0537V31.0195C15.3048 33.487 13.3273 35.4995 10.8598 35.4995H4.94482C2.49482 35.4995 0.499817 33.487 0.499817 31.0195V25.0537C0.499817 22.5687 2.49482 20.572 4.94482 20.572Z" fill="#FF3E3E"/>
<path d="M31.055 0.5H25.14C22.6725 0.5 20.695 2.5125 20.695 4.98175V10.9475C20.695 13.4325 22.6725 15.4275 25.14 15.4275H31.055C33.505 15.4275 35.5 13.4325 35.5 10.9475V4.98175C35.5 2.5125 33.505 0.5 31.055 0.5Z" fill="#FF3E3E"/>
<path d="M25.14 20.572H31.055C33.505 20.572 35.5 22.5687 35.5 25.0537V31.0195C35.5 33.487 33.505 35.4995 31.055 35.4995H25.14C22.6725 35.4995 20.695 33.487 20.695 31.0195V25.0537C20.695 22.5687 22.6725 20.572 25.14 20.572Z" fill="#FF3E3E"/>
</svg>
