<svg width="77" height="76" viewBox="0 0 77 76" fill="none" xmlns="http://www.w3.org/2000/svg">
<path d="M50.6383 0H25.9682C11.6264 0 0 11.5344 0 25.7628V50.2374C0 64.4657 11.6264 76 25.9682 76H50.6383C64.9801 76 76.6065 64.4657 76.6065 50.2374V25.7628C76.6065 11.5344 64.9801 0 50.6383 0Z" fill="#FF3E3E"/>
<path fill-rule="evenodd" clip-rule="evenodd" d="M35.006 14.084C35.006 14.1635 34.9779 14.1678 34.4578 14.1678C33.9377 14.1678 33.9096 14.172 33.9096 14.2517C33.9096 14.331 33.8815 14.3357 33.4037 14.3357C32.9257 14.3357 32.8976 14.3402 32.8976 14.4195C32.8976 14.4964 32.8696 14.5035 32.5602 14.5035C32.251 14.5035 32.223 14.5104 32.223 14.5872C32.223 14.6626 32.1949 14.6712 31.9488 14.6712C31.7028 14.6712 31.6748 14.6798 31.6748 14.7552C31.6748 14.8321 31.6465 14.839 31.3373 14.839C31.0014 14.839 31.0001 14.8394 31.0001 14.9492C31.0001 15.0491 30.9884 15.057 30.8736 15.034C30.6779 14.9951 30.494 15.0456 30.494 15.138C30.494 15.2033 30.4616 15.2166 30.3042 15.2166C30.1425 15.2166 30.1144 15.2291 30.1144 15.3006C30.1144 15.3751 30.0864 15.3844 29.8614 15.3844C29.6366 15.3844 29.6084 15.3938 29.6084 15.4683C29.6084 15.5381 29.5803 15.5523 29.4397 15.5523C29.2992 15.5523 29.2711 15.5663 29.2711 15.6361C29.2711 15.7061 29.243 15.7201 29.1025 15.7201C28.9619 15.7201 28.9337 15.734 28.9337 15.8038C28.9337 15.8599 28.9056 15.8878 28.8495 15.8878C28.7931 15.8878 28.765 15.9158 28.765 15.9718C28.765 16.0416 28.737 16.0556 28.5964 16.0556C28.4559 16.0556 28.4278 16.0695 28.4278 16.1396C28.4278 16.2111 28.3995 16.2236 28.238 16.2236C28.0763 16.2236 28.0482 16.2358 28.0482 16.3073C28.0482 16.3773 28.0202 16.3913 27.8796 16.3913C27.7391 16.3913 27.7108 16.4053 27.7108 16.4751C27.7108 16.5451 27.6827 16.5591 27.5422 16.5591C27.4016 16.5591 27.3735 16.573 27.3735 16.643C27.3735 16.6989 27.3455 16.7268 27.2891 16.7268C27.2274 16.7268 27.2049 16.755 27.2049 16.8319C27.2049 16.9261 27.1879 16.9367 27.0361 16.9367C26.8955 16.9367 26.8675 16.9506 26.8675 17.0207C26.8675 17.0905 26.8394 17.1044 26.6988 17.1044C26.5583 17.1044 26.5302 17.1184 26.5302 17.1884C26.5302 17.2498 26.5019 17.2722 26.4246 17.2722C26.3473 17.2722 26.3193 17.2947 26.3193 17.3562C26.3193 17.4262 26.2912 17.4401 26.1507 17.4401C26.0101 17.4401 25.982 17.4541 25.982 17.5239C25.982 17.5985 25.9538 17.6079 25.729 17.6079C25.504 17.6079 25.476 17.6171 25.476 17.6919C25.476 17.7477 25.4479 17.7757 25.3915 17.7757C25.3354 17.7757 25.3073 17.8036 25.3073 17.8596C25.3073 17.9155 25.2791 17.9434 25.2229 17.9434C25.1666 17.9434 25.1385 17.9716 25.1385 18.0274C25.1385 18.0888 25.1104 18.1114 25.0331 18.1114C24.9558 18.1114 24.9278 18.1337 24.9278 18.1952C24.9278 18.2635 24.8995 18.2791 24.7762 18.2791C24.6626 18.2791 24.6195 18.2991 24.6037 18.359C24.592 18.4031 24.5463 18.4486 24.5022 18.46C24.4554 18.4722 24.4217 18.5178 24.4217 18.5689C24.4217 18.6286 24.3949 18.6567 24.3373 18.6567C24.2909 18.6567 24.2531 18.6827 24.2531 18.7147C24.2531 18.7465 24.2151 18.7826 24.1687 18.7946C24.1222 18.8067 24.0842 18.8451 24.0842 18.8797C24.0842 18.9207 24.0251 18.9529 23.9156 18.9714C23.7876 18.9929 23.747 19.0189 23.747 19.0799C23.747 19.1321 23.7176 19.16 23.6626 19.16C23.6064 19.16 23.5784 19.1881 23.5784 19.244C23.5784 19.2998 23.5501 19.328 23.494 19.328C23.4378 19.328 23.4095 19.3559 23.4095 19.4117C23.4095 19.4678 23.3815 19.4957 23.3253 19.4957C23.269 19.4957 23.2409 19.5237 23.2409 19.5797C23.2409 19.6356 23.2128 19.6635 23.1567 19.6635C23.1004 19.6635 23.0723 19.6914 23.0723 19.7475C23.0723 19.8046 23.0442 19.8312 22.984 19.8312C22.9326 19.8312 22.8868 19.8648 22.8747 19.9114C22.8631 19.9554 22.8175 20.0007 22.7733 20.0123C22.729 20.0239 22.6927 20.0632 22.6927 20.1002C22.6927 20.139 22.6575 20.167 22.6085 20.167C22.5522 20.167 22.5241 20.1949 22.5241 20.251C22.5241 20.3068 22.496 20.3347 22.4397 20.3347C22.3769 20.3347 22.3555 20.3626 22.3555 20.4445C22.3555 20.5336 22.3395 20.5502 22.2711 20.5323C22.2039 20.5149 22.1867 20.531 22.1867 20.6114C22.1867 20.6844 22.1633 20.7123 22.1025 20.7123C22.0461 20.7123 22.018 20.7403 22.018 20.7963C22.018 20.8522 21.99 20.8801 21.9338 20.8801C21.8635 20.8801 21.8494 20.908 21.8494 21.0481C21.8494 21.1879 21.8354 21.2158 21.765 21.2158C21.6948 21.2158 21.6808 21.2437 21.6808 21.3836C21.6808 21.5234 21.6668 21.5513 21.5964 21.5513C21.5402 21.5513 21.512 21.5792 21.512 21.6353C21.512 21.6911 21.4839 21.7193 21.4278 21.7193C21.3714 21.7193 21.3433 21.7472 21.3433 21.8031C21.3433 21.8591 21.3153 21.887 21.2591 21.887C21.2039 21.887 21.1747 21.915 21.1747 21.968C21.1747 22.02 21.1408 22.0537 21.0797 22.0623C21.0009 22.0735 20.9828 22.1059 20.972 22.2541C20.9614 22.3982 20.9433 22.4324 20.877 22.4324C20.8232 22.4324 20.7952 22.4612 20.7952 22.5162C20.7952 22.5722 20.7671 22.6002 20.7107 22.6002C20.6546 22.6002 20.6265 22.6281 20.6265 22.6841C20.6265 22.74 20.5985 22.7679 20.5421 22.7679C20.472 22.7679 20.4579 22.7961 20.4579 22.9359C20.4579 23.0757 20.4437 23.1036 20.3735 23.1036C20.3174 23.1036 20.2891 23.1316 20.2891 23.1874C20.2891 23.2435 20.261 23.2714 20.2049 23.2714C20.1345 23.2714 20.1205 23.2993 20.1205 23.4391C20.1205 23.579 20.1064 23.6071 20.036 23.6071C19.9799 23.6071 19.9518 23.635 19.9518 23.6909C19.9518 23.7469 19.9238 23.7749 19.8674 23.7749C19.7968 23.7749 19.7832 23.8028 19.7832 23.9465C19.7832 24.0831 19.7657 24.1228 19.6988 24.1402C19.6349 24.1568 19.6144 24.1974 19.6144 24.308C19.6144 24.4186 19.5941 24.4592 19.5302 24.476C19.4833 24.488 19.4458 24.5331 19.4458 24.5769C19.4458 24.6278 19.416 24.6557 19.3613 24.6557C19.3052 24.6557 19.2771 24.6839 19.2771 24.7397C19.2771 24.8012 19.2491 24.8237 19.1718 24.8237C19.0768 24.8237 19.0662 24.8405 19.0662 24.9915C19.0662 25.1313 19.0522 25.1592 18.982 25.1592C18.9116 25.1592 18.8976 25.1871 18.8976 25.327C18.8976 25.4668 18.8835 25.4949 18.8132 25.4949C18.7415 25.4949 18.729 25.5229 18.729 25.6837C18.729 25.8444 18.7164 25.8723 18.6445 25.8723C18.5744 25.8723 18.5603 25.9005 18.5603 26.0403C18.5603 26.1801 18.5461 26.2081 18.4759 26.2081C18.401 26.2081 18.3915 26.236 18.3915 26.4598C18.3915 26.6834 18.3822 26.7115 18.3073 26.7115C18.2369 26.7115 18.2229 26.7395 18.2229 26.8793C18.2229 27.0301 18.2123 27.047 18.1182 27.047C18.0152 27.047 18.0139 27.0516 18.0398 27.2988L18.0661 27.5505H17.9493C17.8386 27.5505 17.8336 27.5585 17.8569 27.7017C17.8951 27.935 17.8481 28.1068 17.7531 28.0821C17.6827 28.0639 17.6747 28.0892 17.6747 28.3307C17.6747 28.5755 17.6669 28.5994 17.5864 28.5994C17.5054 28.5994 17.499 28.62 17.5097 28.8406C17.5335 29.331 17.5093 29.6482 17.448 29.6482C17.3701 29.6482 17.3372 29.8357 17.3372 30.2827C17.3372 30.627 17.331 30.655 17.253 30.655C17.1725 30.655 17.1686 30.6829 17.1686 31.2633C17.1686 31.8436 17.1647 31.8715 17.0844 31.8715C17.0011 31.8715 17 31.8995 17 34.2367C17 36.6488 17.0091 36.8638 17.1108 36.8638C17.1572 36.8638 17.1686 36.9815 17.1686 37.4551C17.1686 38.011 17.1736 38.0477 17.253 38.0684C17.3301 38.0883 17.3372 38.1255 17.3372 38.5048C17.3372 38.8915 17.3431 38.9196 17.4217 38.9196C17.5089 38.9196 17.5402 39.1511 17.5136 39.6011C17.5061 39.7309 17.5186 39.7586 17.5842 39.7586C17.6861 39.7586 17.7205 39.9169 17.6874 40.2346C17.6633 40.4689 17.6643 40.4717 17.7736 40.4717C17.8837 40.4717 17.8841 40.473 17.8578 40.7234C17.8314 40.9735 17.8321 40.9752 17.9411 40.9752C18.0506 40.9752 18.051 40.976 18.026 41.243L18.0007 41.5111L18.1119 41.4898C18.2188 41.4696 18.2229 41.4759 18.2229 41.6625C18.2229 41.8281 18.235 41.8563 18.3073 41.8563C18.3822 41.8563 18.3915 41.8842 18.3915 42.1078C18.3915 42.3316 18.401 42.3595 18.4759 42.3595C18.5461 42.3595 18.5603 42.3875 18.5603 42.5275C18.5603 42.6673 18.5744 42.6953 18.6445 42.6953C18.7661 42.6953 18.7568 42.8518 18.634 42.8753L18.5392 42.8935L18.634 42.8993C18.7132 42.904 18.729 42.9292 18.729 43.0518C18.729 43.1706 18.7449 43.1987 18.8132 43.1987C18.8751 43.1987 18.8976 43.2267 18.8976 43.3036C18.8976 43.3805 18.92 43.4084 18.982 43.4084C19.0522 43.4084 19.0662 43.4363 19.0662 43.5761C19.0662 43.716 19.0802 43.7441 19.1506 43.7441C19.2208 43.7441 19.235 43.772 19.235 43.9119C19.235 44.0517 19.2491 44.0796 19.3192 44.0796C19.3896 44.0796 19.4037 44.1075 19.4037 44.2474C19.4037 44.4001 19.4136 44.4153 19.5127 44.4153C19.6168 44.4153 19.6204 44.4233 19.5934 44.5831C19.566 44.7446 19.569 44.7508 19.6794 44.7508C19.7895 44.7508 19.7929 44.7575 19.767 44.9186C19.7415 45.0771 19.7459 45.0866 19.8458 45.0866C19.9307 45.0866 19.9518 45.1074 19.9518 45.1914C19.9518 45.2683 19.9743 45.2962 20.036 45.2962C20.1064 45.2962 20.1205 45.3241 20.1205 45.464C20.1205 45.6038 20.1345 45.6319 20.2049 45.6319C20.261 45.6319 20.2891 45.6599 20.2891 45.7157C20.2891 45.7718 20.3174 45.7997 20.3735 45.7997C20.4437 45.7997 20.4579 45.8276 20.4579 45.9674C20.4579 46.1345 20.4583 46.1352 20.6229 46.1352C20.7824 46.1352 20.7887 46.1408 20.8163 46.3032C20.8338 46.4063 20.8677 46.4709 20.9044 46.4709C20.937 46.4709 20.9638 46.5087 20.9638 46.5549C20.9638 46.6097 20.9921 46.6387 21.0452 46.6387C21.0976 46.6387 21.1315 46.6724 21.1402 46.7332C21.1488 46.7938 21.1875 46.8322 21.2486 46.8408C21.325 46.8517 21.3433 46.8812 21.3433 46.9933C21.3433 47.097 21.3647 47.1379 21.4278 47.1542C21.4781 47.1675 21.512 47.2115 21.512 47.2642C21.512 47.3239 21.5389 47.3518 21.5964 47.3518C21.6525 47.3518 21.6808 47.3799 21.6808 47.4358C21.6808 47.4916 21.7089 47.5198 21.765 47.5198C21.8399 47.5198 21.8494 47.5477 21.8494 47.7715C21.8494 47.9951 21.8587 48.023 21.9338 48.023C21.99 48.023 22.018 48.0512 22.018 48.107C22.018 48.1629 22.0461 48.191 22.1025 48.191C22.1586 48.191 22.1867 48.2189 22.1867 48.2748C22.1867 48.3308 22.2149 48.3587 22.2711 48.3587C22.3272 48.3587 22.3555 48.3867 22.3555 48.4427C22.3555 48.4986 22.3836 48.5265 22.4397 48.5265C22.5017 48.5265 22.5241 48.5544 22.5241 48.6313C22.5241 48.7084 22.5466 48.7364 22.6085 48.7364C22.6647 48.7364 22.6927 48.7643 22.6927 48.8201C22.6927 48.8762 22.7208 48.9041 22.7772 48.9041C22.8333 48.9041 22.8614 48.932 22.8614 48.9881C22.8614 49.0439 22.8896 49.0719 22.9458 49.0719C23.0019 49.0719 23.0302 49.0998 23.0302 49.1558C23.0302 49.2173 23.0583 49.2398 23.1356 49.2398C23.2129 49.2398 23.2409 49.2622 23.2409 49.3236C23.2409 49.3807 23.269 49.4076 23.329 49.4076C23.4059 49.4076 23.4147 49.4273 23.3985 49.5648C23.3884 49.6514 23.3879 49.6892 23.3977 49.6488C23.4231 49.5442 23.5784 49.5532 23.5784 49.6593C23.5784 49.7152 23.6064 49.7431 23.6626 49.7431C23.7189 49.7431 23.747 49.771 23.747 49.8271C23.747 49.8829 23.7751 49.9111 23.8314 49.9111C23.8923 49.9111 23.9156 49.939 23.9156 50.0118C23.9156 50.0921 23.9329 50.1085 24 50.0908C24.0685 50.073 24.0842 50.0896 24.0842 50.1787C24.0842 50.2605 24.1058 50.2885 24.1687 50.2885C24.2248 50.2885 24.2531 50.3166 24.2531 50.3724C24.2531 50.4423 24.2811 50.4564 24.4217 50.4564C24.5623 50.4564 24.5903 50.4704 24.5903 50.5402C24.5903 50.5963 24.6184 50.6242 24.6747 50.6242C24.7309 50.6242 24.7589 50.6521 24.7589 50.708C24.7589 50.764 24.7872 50.7919 24.8434 50.7919C24.8995 50.7919 24.9278 50.8199 24.9278 50.8759C24.9278 50.9374 24.9558 50.9597 25.0331 50.9597C25.1104 50.9597 25.1385 50.982 25.1385 51.0437C25.1385 51.1135 25.1666 51.1277 25.3073 51.1277C25.4479 51.1277 25.476 51.1416 25.476 51.2114C25.476 51.2675 25.504 51.2954 25.5602 51.2954C25.6165 51.2954 25.6446 51.3233 25.6446 51.3792C25.6446 51.4408 25.6726 51.4632 25.7499 51.4632C25.8272 51.4632 25.8555 51.4855 25.8555 51.5472C25.8555 51.615 25.8836 51.6309 26.003 51.6309C26.1191 51.6309 26.1507 51.6477 26.1507 51.7095C26.1507 51.7688 26.1921 51.7946 26.3193 51.815C26.4505 51.8358 26.4879 51.8603 26.4879 51.9252C26.4879 51.9862 26.5162 52.0085 26.5935 52.0085C26.655 52.0085 26.6988 52.0326 26.6988 52.0665C26.6988 52.0985 26.7368 52.1344 26.783 52.1466C26.8295 52.1587 26.8675 52.1984 26.8675 52.2349C26.8675 52.2798 26.9219 52.3099 27.0361 52.3282C27.1632 52.3483 27.2049 52.3743 27.2049 52.4334C27.2049 52.4972 27.2369 52.512 27.3735 52.512C27.5141 52.512 27.5422 52.526 27.5422 52.596C27.5422 52.6658 27.5702 52.6798 27.7108 52.6798C27.8513 52.6798 27.8796 52.6937 27.8796 52.7638C27.8796 52.8336 27.9077 52.8475 28.0482 52.8475C28.1888 52.8475 28.2169 52.8615 28.2169 52.9315C28.2169 52.9929 28.2449 53.0155 28.3222 53.0155C28.3995 53.0155 28.4278 53.0378 28.4278 53.0993C28.4278 53.1693 28.4559 53.1832 28.5964 53.1832C28.737 53.1832 28.765 53.1972 28.765 53.2672C28.765 53.3418 28.7931 53.351 29.0181 53.351C29.2875 53.351 29.4026 53.4842 29.1761 53.5338C29.1241 53.5452 29.2379 53.5445 29.4292 53.5323C29.7588 53.5112 29.7772 53.5147 29.7772 53.5959C29.7772 53.667 29.8081 53.6841 29.9564 53.6947C30.114 53.7061 30.1352 53.7194 30.1317 53.8064C30.1283 53.8966 30.141 53.903 30.2794 53.8809C30.4864 53.848 30.6205 53.8888 30.6205 53.9853C30.6205 54.0508 30.6525 54.0641 30.8103 54.0641C30.9718 54.0641 31.0001 54.0766 31.0001 54.1481C31.0001 54.2226 31.0281 54.2321 31.2531 54.2321C31.4779 54.2321 31.5059 54.2413 31.5059 54.3159C31.5059 54.3913 31.5342 54.3998 31.7801 54.3998C32.026 54.3998 32.0543 54.4084 32.0543 54.4838C32.0543 54.5607 32.0824 54.5676 32.3916 54.5676C32.7007 54.5676 32.729 54.5747 32.729 54.6516C32.729 54.7285 32.7571 54.7354 33.0663 54.7354C33.3754 54.7354 33.4037 54.7424 33.4037 54.8193C33.4037 54.8979 33.4318 54.9033 33.8463 54.9033C34.2611 54.9033 34.2892 54.9085 34.2892 54.9871C34.2892 55.0666 34.3172 55.0711 34.8162 55.0711C35.3153 55.0711 35.3434 55.0756 35.3434 55.1551C35.3434 55.2341 35.3715 55.2388 35.8495 55.2388H36.3554V58.4272C36.3554 61.5875 36.3562 61.6156 36.4398 61.6156C36.5147 61.6156 36.5242 61.6436 36.5242 61.8674C36.5242 62.091 36.5335 62.1189 36.6084 62.1189C36.6788 62.1189 36.6928 62.147 36.6928 62.2869C36.6928 62.4267 36.7068 62.4546 36.7772 62.4546C36.8334 62.4546 36.8614 62.4826 36.8614 62.5386C36.8614 62.5945 36.8895 62.6224 36.9458 62.6224C37 62.6224 37.0301 62.6503 37.0301 62.701C37.0301 62.7601 37.0717 62.7861 37.1989 62.8063C37.3299 62.8273 37.3675 62.8518 37.3675 62.9167C37.3675 62.9955 37.3967 63 37.9118 63C38.4254 63 38.4548 62.9955 38.4352 62.9205C38.4131 62.837 38.599 62.7833 38.8434 62.8028C38.9237 62.8093 38.952 62.7889 38.9624 62.7169C38.9745 62.631 38.9987 62.6224 39.2258 62.6224C39.4477 62.6224 39.476 62.6129 39.476 62.5386C39.476 62.4686 39.5041 62.4546 39.6446 62.4546C39.7852 62.4546 39.8133 62.4407 39.8133 62.3707C39.8133 62.2961 39.8413 62.2869 40.0663 62.2869C40.2913 62.2869 40.3193 62.2774 40.3193 62.2029C40.3193 62.1314 40.3474 62.1189 40.5091 62.1189C40.6706 62.1189 40.6989 62.1067 40.6989 62.0351C40.6989 61.9651 40.727 61.9512 40.8675 61.9512C41.0081 61.9512 41.0361 61.9372 41.0361 61.8674C41.0361 61.7974 41.0642 61.7834 41.2048 61.7834C41.3453 61.7834 41.3736 61.7694 41.3736 61.6994C41.3736 61.635 41.4017 61.6156 41.4947 61.6156C41.7042 61.6156 41.8795 61.5654 41.8795 61.5055C41.8795 61.4737 41.9192 61.4477 41.9678 61.4477C42.0196 61.4477 42.0649 61.4142 42.0775 61.3669C42.0919 61.3115 42.1504 61.2773 42.2631 61.2582C42.3629 61.2415 42.4276 61.2075 42.4276 61.1719C42.4276 61.1358 42.4929 61.1027 42.5965 61.0864C42.7234 61.066 42.7651 61.0402 42.7651 60.9809C42.7651 60.9174 42.7971 60.9023 42.9337 60.9023C43.0743 60.9023 43.1023 60.8884 43.1023 60.8185C43.1023 60.7625 43.1306 60.7346 43.1868 60.7346C43.2429 60.7346 43.2712 60.7066 43.2712 60.6508C43.2712 60.5808 43.2993 60.5668 43.4398 60.5668C43.5804 60.5668 43.6084 60.5528 43.6084 60.4828C43.6084 60.4076 43.6365 60.399 43.8826 60.399C44.1285 60.399 44.1566 60.3905 44.1566 60.3151C44.1566 60.245 44.1847 60.2311 44.3252 60.2311C44.4658 60.2311 44.4941 60.2171 44.4941 60.1473C44.4941 60.0912 44.5221 60.0633 44.5783 60.0633C44.6346 60.0633 44.6627 60.0354 44.6627 59.9796C44.6627 59.9095 44.6908 59.8956 44.8313 59.8956C44.9719 59.8956 44.9999 59.8816 44.9999 59.8116C44.9999 59.7557 45.0282 59.7278 45.0843 59.7278C45.1405 59.7278 45.1688 59.6997 45.1688 59.6438C45.1688 59.5738 45.1968 59.5599 45.3374 59.5599C45.4779 59.5599 45.506 59.5459 45.506 59.4761C45.506 59.4189 45.5341 59.3921 45.5943 59.3921C45.6461 59.3921 45.6915 59.3586 45.704 59.3111C45.7185 59.2557 45.777 59.2216 45.8897 59.2027C46.0138 59.1818 46.0542 59.1554 46.0542 59.0948C46.0542 59.0426 46.0835 59.0145 46.1386 59.0145C46.1947 59.0145 46.223 58.9866 46.223 58.9307C46.223 58.8607 46.2511 58.8467 46.3916 58.8467C46.5322 58.8467 46.5603 58.8328 46.5603 58.7627C46.5603 58.7069 46.5883 58.679 46.6447 58.679C46.7008 58.679 46.7289 58.6511 46.7289 58.595C46.7289 58.5391 46.757 58.5112 46.8133 58.5112C46.8694 58.5112 46.8977 58.4831 46.8977 58.4272C46.8977 58.3572 46.9258 58.3433 47.0663 58.3433C47.2069 58.3433 47.235 58.3293 47.235 58.2595C47.235 58.1978 47.263 58.1755 47.3403 58.1755C47.4176 58.1755 47.4459 58.1532 47.4459 58.0915C47.4459 58.0428 47.474 58.0077 47.513 58.0077C47.55 58.0077 47.5897 57.9717 47.6011 57.9278C47.6145 57.8767 47.6743 57.8381 47.7659 57.8209C47.8473 57.8058 47.9097 57.7689 47.9097 57.736C47.9097 57.704 47.9524 57.6718 48.0044 57.6645C48.0655 57.6559 48.1042 57.6175 48.1128 57.5567C48.1215 57.4961 48.1554 57.4624 48.2078 57.4624C48.2612 57.4624 48.2892 57.4334 48.2892 57.3784C48.2892 57.3226 48.3173 57.2946 48.3734 57.2946C48.4298 57.2946 48.4578 57.2665 48.4578 57.2106C48.4578 57.1546 48.4859 57.1267 48.5423 57.1267C48.5984 57.1267 48.6265 57.0987 48.6265 57.0429C48.6265 56.9729 48.6548 56.9589 48.7953 56.9589C48.9359 56.9589 48.9639 56.9449 48.9639 56.8749C48.9639 56.8191 48.992 56.7911 49.0481 56.7911C49.1045 56.7911 49.1325 56.7632 49.1325 56.7072C49.1325 56.6513 49.1606 56.6234 49.217 56.6234C49.2731 56.6234 49.3012 56.5953 49.3012 56.5394C49.3012 56.4778 49.3294 56.4554 49.4067 56.4554C49.484 56.4554 49.5121 56.4331 49.5121 56.3717C49.5121 56.3156 49.5402 56.2877 49.5965 56.2877C49.6527 56.2877 49.6807 56.2597 49.6807 56.2037C49.6807 56.1478 49.7088 56.1199 49.7651 56.1199C49.8213 56.1199 49.8493 56.092 49.8493 56.0359C49.8493 55.9801 49.8776 55.9522 49.9338 55.9522C49.9899 55.9522 50.0182 55.924 50.0182 55.8682C50.0182 55.8121 50.0462 55.7842 50.1024 55.7842C50.157 55.7842 50.1868 55.7563 50.1868 55.7051C50.1868 55.6615 50.2244 55.6164 50.2712 55.6042C50.3215 55.5911 50.3554 55.5471 50.3554 55.4944C50.3554 55.4347 50.3824 55.4066 50.4398 55.4066C50.51 55.4066 50.524 55.3787 50.524 55.2388C50.524 55.099 50.5381 55.0711 50.6085 55.0711C50.6788 55.0711 50.6929 55.0432 50.6929 54.9033C50.6929 54.7609 50.7063 54.7354 50.7812 54.7354C50.8339 54.7354 50.8781 54.7018 50.8915 54.6516C50.9036 54.6054 50.9397 54.5676 50.9718 54.5676C51.004 54.5676 51.0301 54.5298 51.0301 54.4838C51.0301 54.4265 51.0582 54.3998 51.1184 54.3998C51.1698 54.3998 51.2156 54.3663 51.2277 54.3197C51.2393 54.2757 51.2849 54.2304 51.3291 54.2188C51.3734 54.2074 51.4097 54.17 51.4097 54.1359C51.4097 54.1019 51.4477 54.0641 51.4941 54.0521C51.5444 54.039 51.5783 53.9947 51.5783 53.9423C51.5783 53.8824 51.6053 53.8545 51.6627 53.8545C51.7189 53.8545 51.7469 53.8266 51.7469 53.7705C51.7469 53.7146 51.7752 53.6867 51.8313 53.6867C51.8875 53.6867 51.9158 53.6586 51.9158 53.6027C51.9158 53.5469 51.9438 53.5188 52 53.5188C52.0563 53.5188 52.0844 53.4908 52.0844 53.435C52.0844 53.3789 52.1124 53.351 52.1688 53.351C52.2249 53.351 52.253 53.3231 52.253 53.2672C52.253 53.2112 52.2811 53.1832 52.3374 53.1832C52.3936 53.1832 52.4216 53.1553 52.4216 53.0993C52.4216 53.0445 52.4499 53.0155 52.503 53.0155C52.5555 53.0155 52.5894 52.9818 52.598 52.921C52.6067 52.8604 52.6453 52.8217 52.7064 52.8132C52.7837 52.8022 52.8012 52.7732 52.8012 52.6559C52.8012 52.5399 52.8176 52.512 52.8856 52.512C52.94 52.512 52.97 52.4841 52.97 52.433C52.97 52.3891 53.0076 52.3443 53.0542 52.332C53.1047 52.3189 53.1386 52.2749 53.1386 52.2223C53.1386 52.1623 53.1654 52.1344 53.2228 52.1344C53.2932 52.1344 53.3073 52.1065 53.3073 51.9666C53.3073 51.8268 53.3213 51.7989 53.3917 51.7989C53.4478 51.7989 53.4759 51.7708 53.4759 51.7149C53.4759 51.6591 53.504 51.6309 53.5603 51.6309C53.6305 51.6309 53.6447 51.603 53.6447 51.4632C53.6447 51.3233 53.6588 51.2954 53.7289 51.2954C53.7853 51.2954 53.8133 51.2675 53.8133 51.2114C53.8133 51.1556 53.8414 51.1277 53.8975 51.1277C53.9539 51.1277 53.982 51.0995 53.982 51.0437C53.982 50.9878 54.01 50.9597 54.0664 50.9597C54.1365 50.9597 54.1506 50.9318 54.1506 50.7919C54.1506 50.6521 54.1646 50.6242 54.235 50.6242C54.2978 50.6242 54.3194 50.5963 54.3194 50.5144C54.3194 50.4195 54.3339 50.4075 54.4265 50.4251C54.5312 50.4448 54.5329 50.4412 54.506 50.262C54.4794 50.0855 54.4824 50.0788 54.5887 50.0788C54.689 50.0788 54.6988 50.064 54.6988 49.9111C54.6988 49.7367 54.8011 49.6668 54.8372 49.8166C54.8471 49.8569 54.8467 49.8191 54.8365 49.7326C54.8192 49.5867 54.8257 49.5753 54.927 49.5753C55.0323 49.5753 55.0362 49.5665 55.0362 49.3236C55.0362 49.0998 55.0455 49.0719 55.1204 49.0719C55.1908 49.0719 55.2048 49.0439 55.2048 48.9041C55.2048 48.7643 55.2189 48.7364 55.2893 48.7364C55.3594 48.7364 55.3735 48.7084 55.3735 48.5686C55.3735 48.4286 55.3875 48.4006 55.4579 48.4006C55.5298 48.4006 55.5423 48.3727 55.5423 48.2118C55.5423 48.0512 55.5546 48.023 55.6265 48.023C55.6969 48.023 55.7109 47.9951 55.7109 47.8553C55.7109 47.7154 55.725 47.6875 55.7951 47.6875C55.8655 47.6875 55.8795 47.6596 55.8795 47.5198C55.8795 47.3799 55.8936 47.3518 55.964 47.3518C56.0341 47.3518 56.0482 47.3239 56.0482 47.184C56.0482 47.0378 56.0605 47.0163 56.1434 47.0163C56.2304 47.0163 56.2373 47 56.2235 46.8275C56.2101 46.6589 56.2179 46.6387 56.2971 46.6387C56.3858 46.6387 56.4031 46.5923 56.3871 46.3975C56.3811 46.3221 56.4014 46.3032 56.488 46.3032C56.5864 46.3032 56.5963 46.2875 56.5963 46.1352C56.5963 45.9954 56.6104 45.9674 56.6808 45.9674C56.7511 45.9674 56.7652 45.9395 56.7652 45.7997C56.7652 45.6599 56.7792 45.6319 56.8494 45.6319C56.9243 45.6319 56.9338 45.6038 56.9338 45.3802C56.9338 45.1564 56.9431 45.1285 57.0182 45.1285C57.0899 45.1285 57.1024 45.1005 57.1024 44.9396C57.1024 44.7788 57.1149 44.7508 57.1868 44.7508C57.2618 44.7508 57.271 44.7229 57.271 44.4991C57.271 44.2755 57.2805 44.2474 57.3555 44.2474C57.4304 44.2474 57.4399 44.2194 57.4399 43.9956C57.4399 43.772 57.4492 43.7441 57.5241 43.7441C57.5999 43.7441 57.6085 43.716 57.6085 43.4713C57.6085 43.2267 57.6171 43.1987 57.6929 43.1987C57.7732 43.1987 57.7771 43.1706 57.7771 42.6113C57.7771 42.059 57.7821 42.024 57.8585 42.024C57.9093 42.024 57.947 42.0595 57.9585 42.1183C57.9686 42.1703 57.9749 42.0146 57.9721 41.7723C57.9669 41.3397 57.9686 41.3315 58.0662 41.3178C58.1623 41.3042 58.1647 41.2946 58.1372 41.0394C58.093 40.6287 58.229 40.2223 58.2955 40.5662C58.3057 40.618 58.3165 40.4292 58.3197 40.1467C58.3251 39.6626 58.3303 39.6327 58.4097 39.6327C58.4874 39.6327 58.4939 39.6048 58.4939 39.2762C58.4939 38.9475 58.5006 38.9196 58.5783 38.9196C58.6593 38.9196 58.6628 38.8915 58.6628 38.2224C58.6628 37.546 58.6651 37.526 58.747 37.5473C58.8301 37.569 58.8314 37.5486 58.8314 36.1677C58.8314 34.7943 58.8331 34.7663 58.9158 34.7663C58.9952 34.7663 59 34.7382 59 34.2629C59 33.7873 58.9952 33.7594 58.9158 33.7594C58.8338 33.7594 58.8314 33.7315 58.8314 32.7316C58.8314 31.7317 58.829 31.7038 58.747 31.7038C58.6673 31.7038 58.6628 31.6759 58.6628 31.1793C58.6628 30.6829 58.6582 30.655 58.5783 30.655C58.4987 30.655 58.4939 30.627 58.4939 30.1515C58.4939 29.6839 58.4883 29.6482 58.4134 29.6482C58.3128 29.6482 58.2636 29.4091 58.3059 29.1271C58.3344 28.9383 58.3329 28.9349 58.2186 28.9349H58.1025L58.1221 28.5888C58.1329 28.3985 58.1344 28.2851 58.1252 28.3371C58.0613 28.7001 57.919 28.2377 57.9559 27.787C57.9673 27.6455 57.9686 27.572 57.9585 27.624C57.9468 27.6828 57.9095 27.7183 57.8585 27.7183C57.7836 27.7183 57.7771 27.6854 57.7771 27.2988C57.7771 26.9072 57.7715 26.8793 57.6929 26.8793C57.6178 26.8793 57.6085 26.8514 57.6085 26.6276C57.6085 26.4037 57.599 26.3758 57.5241 26.3758C57.4522 26.3758 57.4399 26.3479 57.4399 26.187C57.4399 26.0263 57.4274 25.9982 57.3555 25.9982C57.2851 25.9982 57.271 25.9703 57.271 25.8305C57.271 25.6906 57.257 25.6627 57.1868 25.6627C57.1119 25.6627 57.1024 25.6348 57.1024 25.411C57.1024 25.191 57.0923 25.1592 57.0219 25.1592C56.9606 25.1592 56.9342 25.1188 56.9126 24.9915C56.8911 24.8641 56.8647 24.8237 56.8036 24.8237C56.7511 24.8237 56.7229 24.7943 56.7229 24.7397C56.7229 24.6839 56.6948 24.6557 56.6387 24.6557C56.5823 24.6557 56.5542 24.6278 56.5542 24.572C56.5542 24.5258 56.527 24.488 56.4936 24.488C56.4541 24.488 56.423 24.4225 56.4044 24.2992C56.3824 24.1523 56.3584 24.1104 56.2965 24.1104C56.2451 24.1104 56.217 24.0807 56.217 24.0266C56.217 23.9705 56.1887 23.9426 56.1326 23.9426C56.0622 23.9426 56.0482 23.9147 56.0482 23.7749C56.0482 23.635 56.0341 23.6071 55.964 23.6071C55.8936 23.6071 55.8795 23.579 55.8795 23.4391C55.8795 23.2993 55.8655 23.2714 55.7951 23.2714C55.739 23.2714 55.7109 23.2435 55.7109 23.1874C55.7109 23.1316 55.6829 23.1036 55.6265 23.1036C55.5563 23.1036 55.5423 23.0757 55.5423 22.9359C55.5423 22.7961 55.528 22.7679 55.4579 22.7679C55.4005 22.7679 55.3735 22.74 55.3735 22.6801C55.3735 22.6279 55.3398 22.5836 55.2903 22.5707C55.2359 22.5566 55.1975 22.4994 55.18 22.4068C55.1649 22.3263 55.128 22.2646 55.0947 22.2646C55.0604 22.2646 55.0362 22.2213 55.0362 22.1596C55.0362 22.0827 55.0138 22.0548 54.9518 22.0548C54.8838 22.0548 54.8676 22.0269 54.8676 21.9109C54.8676 21.7936 54.8499 21.7644 54.7726 21.7537C54.7117 21.7448 54.6729 21.7064 54.6642 21.6458C54.6556 21.585 54.6217 21.5513 54.5694 21.5513C54.5161 21.5513 54.488 21.5223 54.488 21.4675C54.488 21.4115 54.46 21.3836 54.4036 21.3836C54.3475 21.3836 54.3194 21.3556 54.3194 21.2996C54.3194 21.2437 54.2911 21.2158 54.235 21.2158C54.1786 21.2158 54.1506 21.1879 54.1506 21.1318C54.1506 21.076 54.1225 21.0481 54.0664 21.0481C54.01 21.0481 53.982 21.0199 53.982 20.9641C53.982 20.908 53.9539 20.8801 53.8975 20.8801C53.8414 20.8801 53.8133 20.8522 53.8133 20.7963C53.8133 20.7403 53.7853 20.7123 53.7289 20.7123C53.6715 20.7123 53.6447 20.6844 53.6447 20.6245C53.6447 20.5719 53.6108 20.5278 53.5603 20.5147C53.5137 20.5025 53.4759 20.4576 53.4759 20.4138C53.4759 20.3644 53.4461 20.3347 53.3964 20.3347C53.3526 20.3347 53.3073 20.2973 53.295 20.251C53.2829 20.2048 53.2449 20.167 53.2108 20.167C53.1764 20.167 53.1384 20.1292 53.1263 20.083C53.1132 20.0329 53.0689 19.9992 53.016 19.9992C52.9558 19.9992 52.9277 19.9724 52.9277 19.9152C52.9277 19.8474 52.8996 19.8312 52.7807 19.8312C52.6416 19.8312 52.6321 19.822 52.6067 19.6635C52.5805 19.5013 52.5743 19.4957 52.4162 19.4957C52.2811 19.4957 52.253 19.4813 52.253 19.4117C52.253 19.3559 52.2249 19.328 52.1688 19.328C52.1124 19.328 52.0844 19.2998 52.0844 19.244C52.0844 19.1881 52.0563 19.16 52 19.16C51.9438 19.16 51.9158 19.1321 51.9158 19.0762C51.9158 19.0191 51.8875 18.9923 51.8275 18.9923C51.7761 18.9923 51.7303 18.959 51.7182 18.9124C51.7048 18.8614 51.645 18.8226 51.5535 18.8056C51.4721 18.7903 51.4097 18.7536 51.4097 18.7205C51.4097 18.6887 51.3669 18.6565 51.3147 18.649C51.2538 18.6404 51.2152 18.602 51.2065 18.5414C51.1979 18.4806 51.1638 18.4469 51.1115 18.4469C51.0582 18.4469 51.0301 18.4179 51.0301 18.3631C51.0301 18.2931 51.0021 18.2791 50.8615 18.2791C50.7209 18.2791 50.6929 18.2652 50.6929 18.1952C50.6929 18.1393 50.6646 18.1114 50.6085 18.1114C50.5381 18.1114 50.524 18.0832 50.524 17.9434V17.7757H50.3554C50.2149 17.7757 50.1868 17.7617 50.1868 17.6919C50.1868 17.6171 50.1587 17.6079 49.9338 17.6079C49.7088 17.6079 49.6807 17.5985 49.6807 17.5239C49.6807 17.4537 49.6527 17.4401 49.5082 17.4401C49.3709 17.4401 49.331 17.4228 49.3135 17.3562C49.3012 17.3098 49.2558 17.2722 49.212 17.2722C49.1606 17.2722 49.1325 17.2425 49.1325 17.1884C49.1325 17.1184 49.1045 17.1044 48.9639 17.1044C48.826 17.1044 48.7953 17.0898 48.7953 17.0243C48.7953 16.9633 48.7545 16.9371 48.6265 16.9156C48.5228 16.8982 48.4578 16.8645 48.4578 16.828C48.4578 16.7956 48.4181 16.7689 48.3695 16.7689C48.3166 16.7689 48.2724 16.7352 48.2592 16.6847C48.2435 16.6252 48.1888 16.5928 48.0733 16.5743C47.9509 16.555 47.9097 16.5286 47.9097 16.4697C47.9097 16.4061 47.8777 16.3913 47.741 16.3913C47.6005 16.3913 47.5724 16.3773 47.5724 16.3073C47.5724 16.2375 47.5441 16.2236 47.4036 16.2236C47.263 16.2236 47.235 16.2094 47.235 16.1396C47.235 16.0695 47.2069 16.0556 47.0663 16.0556C46.9258 16.0556 46.8977 16.0416 46.8977 15.9718C46.8977 15.8971 46.8694 15.8878 46.6447 15.8878C46.4197 15.8878 46.3916 15.8786 46.3916 15.8038C46.3916 15.7325 46.3636 15.7201 46.2019 15.7201C46.0402 15.7201 46.0121 15.7076 46.0121 15.6361C46.0121 15.5622 45.984 15.5523 45.7761 15.5523C45.5757 15.5523 45.5371 15.5396 45.5183 15.4683C45.501 15.4026 45.4607 15.3844 45.3324 15.3844C45.1863 15.3844 45.1688 15.3734 45.1688 15.2802C45.1688 15.1779 45.1638 15.1764 44.9194 15.2018C44.68 15.2267 44.6694 15.2237 44.6558 15.1279C44.6426 15.0351 44.623 15.0278 44.3885 15.0278C44.1553 15.0278 44.1344 15.0201 44.1216 14.9296C44.1085 14.8377 44.0921 14.8323 43.8686 14.8456C43.6477 14.859 43.6285 14.8529 43.616 14.7655C43.6039 14.6798 43.5797 14.6712 43.3526 14.6712C43.1306 14.6712 43.1023 14.6618 43.1023 14.5872C43.1023 14.5099 43.0743 14.5035 42.7439 14.5035C42.4136 14.5035 42.3856 14.4968 42.3856 14.4195C42.3856 14.3402 42.3575 14.3357 41.8795 14.3357C41.4017 14.3357 41.3736 14.331 41.3736 14.2517C41.3736 14.1716 41.3453 14.1678 40.7622 14.1678C40.1788 14.1678 40.1507 14.1639 40.1507 14.084C40.1507 14.0009 40.1224 14 37.5782 14C35.0342 14 35.006 14.0009 35.006 14.084ZM39.4864 16.7631C39.7833 16.7683 39.8133 16.7766 39.8133 16.8527C39.8133 16.9328 39.8413 16.9367 40.4247 16.9367C40.9172 16.9367 41.0361 16.9478 41.0361 16.9947C41.0361 17.0784 41.1724 17.1031 41.637 17.1038C42.0198 17.1044 42.0483 17.1102 42.0483 17.1884C42.0483 17.2653 42.0764 17.2722 42.3856 17.2722C42.6947 17.2722 42.723 17.2793 42.723 17.3562C42.723 17.4348 42.7511 17.4401 43.1656 17.4401C43.5804 17.4401 43.6084 17.4453 43.6084 17.5239C43.6084 17.5993 43.6365 17.6079 43.8826 17.6079C44.1285 17.6079 44.1566 17.6165 44.1566 17.6919C44.1566 17.7664 44.1847 17.7757 44.4096 17.7757C44.6346 17.7757 44.6627 17.7851 44.6627 17.8596C44.6627 17.9241 44.6908 17.9434 44.7838 17.9434C44.9932 17.9434 45.1688 17.9937 45.1688 18.0536C45.1688 18.0929 45.2223 18.1114 45.3374 18.1114C45.4779 18.1114 45.506 18.1253 45.506 18.1952C45.506 18.2652 45.5341 18.2791 45.6746 18.2791C45.8137 18.2791 45.8435 18.2935 45.8435 18.3605C45.8435 18.4265 45.8778 18.4445 46.0227 18.4551C46.1716 18.4658 46.204 18.4838 46.2152 18.5622C46.2267 18.6419 46.2548 18.6567 46.3945 18.6567C46.5322 18.6567 46.5603 18.6709 46.5603 18.7405C46.5603 18.8105 46.5883 18.8245 46.7289 18.8245C46.8694 18.8245 46.8977 18.8385 46.8977 18.9085C46.8977 18.9643 46.9258 18.9923 46.9819 18.9923C47.0383 18.9923 47.0663 19.0202 47.0663 19.0762C47.0663 19.146 47.0944 19.16 47.235 19.16C47.3755 19.16 47.4036 19.1742 47.4036 19.244C47.4036 19.314 47.4317 19.328 47.5724 19.328C47.713 19.328 47.741 19.3419 47.741 19.4117C47.741 19.4691 47.7691 19.4957 47.8293 19.4957C47.882 19.4957 47.9265 19.5295 47.9397 19.5797C47.957 19.6454 47.9971 19.6635 48.1254 19.6635C48.2612 19.6635 48.2892 19.6779 48.2892 19.7475C48.2892 19.8033 48.3173 19.8312 48.3734 19.8312C48.4298 19.8312 48.4578 19.8594 48.4578 19.9152C48.4578 19.9852 48.4859 19.9992 48.6265 19.9992C48.7783 19.9992 48.7953 20.0097 48.7953 20.104C48.7953 20.1809 48.8178 20.2089 48.8795 20.2089C48.9259 20.2089 48.9639 20.2355 48.9639 20.2681C48.9639 20.3046 49.0289 20.3384 49.1325 20.3558C49.242 20.3742 49.3012 20.4062 49.3012 20.4473C49.3012 20.4821 49.3392 20.5203 49.3856 20.5323C49.4322 20.5446 49.47 20.5897 49.47 20.6333C49.47 20.6844 49.4998 20.7123 49.5542 20.7123C49.6032 20.7123 49.6386 20.7403 49.6386 20.7791C49.6386 20.8159 49.6747 20.8554 49.7189 20.867C49.7632 20.8786 49.809 20.9239 49.8204 20.9679C49.8327 21.0145 49.8785 21.0481 49.9299 21.0481C49.9899 21.0481 50.0182 21.0747 50.0182 21.1318C50.0182 21.2018 50.0462 21.2158 50.1868 21.2158C50.3274 21.2158 50.3554 21.2298 50.3554 21.2996C50.3554 21.3556 50.3835 21.3836 50.4398 21.3836C50.51 21.3836 50.524 21.4115 50.524 21.5513C50.524 21.6911 50.51 21.7193 50.4398 21.7193C50.3835 21.7193 50.3554 21.7472 50.3554 21.8031C50.3554 21.8591 50.3274 21.887 50.2712 21.887C50.2149 21.887 50.1868 21.915 50.1868 21.9708C50.1868 22.0269 50.1587 22.0548 50.1024 22.0548C50.045 22.0548 50.0182 22.0827 50.0182 22.1426C50.0182 22.1938 49.9845 22.2393 49.9377 22.2513C49.8934 22.2629 49.8478 22.3083 49.8362 22.3523C49.8239 22.3989 49.7783 22.4324 49.7269 22.4324C49.6667 22.4324 49.6386 22.459 49.6386 22.5162C49.6386 22.5722 49.6106 22.6002 49.5542 22.6002C49.4981 22.6002 49.47 22.6281 49.47 22.6841C49.47 22.74 49.4417 22.7679 49.3856 22.7679C49.3294 22.7679 49.3012 22.7961 49.3012 22.8519C49.3012 22.9077 49.2731 22.9359 49.217 22.9359C49.1606 22.9359 49.1325 22.9638 49.1325 23.0197C49.1325 23.0757 49.1045 23.1036 49.0481 23.1036C48.992 23.1036 48.9639 23.1316 48.9639 23.1874C48.9639 23.2435 48.9359 23.2714 48.8795 23.2714C48.8234 23.2714 48.7953 23.2993 48.7953 23.3554C48.7953 23.4112 48.767 23.4391 48.7109 23.4391C48.6547 23.4391 48.6265 23.4673 48.6265 23.5231C48.6265 23.5929 48.5984 23.6071 48.4578 23.6071C48.3173 23.6071 48.2892 23.5929 48.2892 23.5231C48.2892 23.4673 48.2612 23.4391 48.2048 23.4391C48.1487 23.4391 48.1206 23.4112 48.1206 23.3554C48.1206 23.301 48.0923 23.2714 48.0411 23.2714C47.9971 23.2714 47.9518 23.234 47.9397 23.1874C47.9265 23.1374 47.882 23.1036 47.8293 23.1036C47.7691 23.1036 47.741 23.0768 47.741 23.0197C47.741 22.9638 47.713 22.9359 47.6566 22.9359C47.6005 22.9359 47.5724 22.9077 47.5724 22.8519C47.5724 22.7819 47.5441 22.7679 47.4036 22.7679C47.263 22.7679 47.235 22.7539 47.235 22.6841C47.235 22.6281 47.2069 22.6002 47.1505 22.6002C47.0944 22.6002 47.0663 22.5722 47.0663 22.5162C47.0663 22.4464 47.0383 22.4324 46.8977 22.4324C46.757 22.4324 46.7289 22.4184 46.7289 22.3484C46.7289 22.2926 46.7008 22.2646 46.6447 22.2646C46.5827 22.2646 46.5603 22.2365 46.5603 22.1596C46.5603 22.0658 46.543 22.0548 46.3966 22.0548C46.2681 22.0548 46.228 22.0365 46.2107 21.9708C46.1975 21.9208 46.1531 21.887 46.1004 21.887C46.0402 21.887 46.0121 21.8602 46.0121 21.8031C46.0121 21.7332 45.984 21.7193 45.8435 21.7193C45.7029 21.7193 45.6746 21.7051 45.6746 21.6353C45.6746 21.5653 45.6466 21.5513 45.506 21.5513C45.3655 21.5513 45.3374 21.5374 45.3374 21.4675C45.3374 21.3975 45.3093 21.3836 45.1688 21.3836C45.0282 21.3836 44.9999 21.3696 44.9999 21.2996C44.9999 21.2298 44.9719 21.2158 44.8313 21.2158C44.6908 21.2158 44.6627 21.2018 44.6627 21.1318C44.6627 21.0616 44.6346 21.0481 44.49 21.0481C44.3529 21.0481 44.3129 21.0307 44.2954 20.9641C44.2782 20.8983 44.2378 20.8801 44.1095 20.8801C43.9647 20.8801 43.9459 20.8685 43.9459 20.7791C43.9459 20.6814 43.9383 20.679 43.6928 20.7012C43.4584 20.7222 43.4398 20.7177 43.4398 20.638C43.4398 20.5704 43.4038 20.5459 43.2712 20.5235C43.1749 20.5074 43.1023 20.4715 43.1023 20.4404C43.1023 20.4022 42.9996 20.3764 42.7651 20.3558C42.5369 20.3356 42.4276 20.3089 42.4276 20.2729C42.4276 20.2129 42.2083 20.168 41.9112 20.1674C41.7391 20.167 41.7109 20.1552 41.7109 20.083C41.7109 20.0057 41.6828 19.9992 41.3524 19.9992C41.0754 19.9992 40.994 19.9859 40.994 19.941C40.994 19.8544 40.8561 19.8325 40.3088 19.8319C39.8416 19.8315 39.8133 19.8265 39.8133 19.7475C39.8133 19.6648 39.7852 19.6635 38.0001 19.6635C36.2148 19.6635 36.1867 19.6648 36.1867 19.7475C36.1867 19.8254 36.1587 19.8312 35.7914 19.8312C35.3218 19.8312 35.1325 19.863 35.1325 19.9414C35.1325 19.9848 35.0606 19.9992 34.8427 19.9992C34.6832 19.9992 34.4934 20.011 34.4209 20.0254C34.3485 20.0398 34.2892 20.0776 34.2892 20.1092C34.2892 20.1519 34.2222 20.167 34.0322 20.167C33.8107 20.167 33.7723 20.1786 33.7533 20.251C33.7356 20.3175 33.6954 20.3349 33.5568 20.3352C33.285 20.336 33.0663 20.3826 33.0663 20.44C33.0663 20.495 32.8843 20.5446 32.6815 20.5446C32.6051 20.5446 32.5602 20.5665 32.5602 20.6039C32.5602 20.6649 32.3376 20.7155 32.1385 20.6997C32.0565 20.6932 32.0299 20.7136 32.0189 20.7912C32.0055 20.8859 31.9928 20.89 31.7765 20.8676C31.5543 20.8449 31.5483 20.847 31.5483 20.9503C31.5483 21.0502 31.5372 21.0556 31.3585 21.0414C31.1851 21.0276 31.1687 21.0345 31.1687 21.1211C31.1687 21.2036 31.1469 21.2158 31.0001 21.2158C30.8595 21.2158 30.8312 21.2298 30.8312 21.2996C30.8312 21.3696 30.8032 21.3836 30.6626 21.3836C30.5221 21.3836 30.494 21.3975 30.494 21.4675C30.494 21.5234 30.4659 21.5513 30.4096 21.5513C30.3534 21.5513 30.3254 21.5792 30.3254 21.6353C30.3254 21.7051 30.2971 21.7193 30.1565 21.7193C30.016 21.7193 29.9879 21.7332 29.9879 21.8031C29.9879 21.8647 29.9598 21.887 29.8826 21.887C29.8063 21.887 29.7772 21.9096 29.7772 21.9684C29.7772 22.032 29.7429 22.0526 29.6189 22.0627C29.492 22.0733 29.4583 22.0943 29.4473 22.1701C29.4387 22.2309 29.4048 22.2646 29.3525 22.2646C29.3078 22.2646 29.2711 22.2928 29.2711 22.3276C29.2711 22.3624 29.2335 22.3905 29.1867 22.3905C29.1249 22.3905 29.1025 22.4184 29.1025 22.4953C29.1025 22.5722 29.0798 22.6002 29.0181 22.6002C28.9619 22.6002 28.9337 22.6281 28.9337 22.6841C28.9337 22.7539 28.9056 22.7679 28.765 22.7679C28.6245 22.7679 28.5964 22.7819 28.5964 22.8519C28.5964 22.9077 28.5683 22.9359 28.512 22.9359C28.4559 22.9359 28.4278 22.9638 28.4278 23.0197C28.4278 23.0768 28.3995 23.1036 28.3395 23.1036C28.2881 23.1036 28.2423 23.1369 28.23 23.1835C28.2186 23.2276 28.1728 23.2731 28.1286 23.2845C28.0843 23.2961 28.0482 23.3356 28.0482 23.3723C28.0482 23.4112 28.0128 23.4391 27.9638 23.4391C27.9077 23.4391 27.8796 23.4673 27.8796 23.5231C27.8796 23.5977 27.8513 23.6071 27.6266 23.6071C27.4016 23.6071 27.3735 23.5977 27.3735 23.5231C27.3735 23.4673 27.3455 23.4391 27.2891 23.4391C27.2209 23.4391 27.2049 23.4112 27.2049 23.2924C27.2049 23.1734 27.1887 23.1455 27.1205 23.1455C27.0585 23.1455 27.0361 23.1176 27.0361 23.0407C27.0361 22.9638 27.0136 22.9359 26.9519 22.9359C26.8955 22.9359 26.8675 22.9077 26.8675 22.8519C26.8675 22.7961 26.8394 22.7679 26.783 22.7679C26.7269 22.7679 26.6988 22.74 26.6988 22.6841C26.6988 22.6281 26.6708 22.6002 26.6144 22.6002C26.5583 22.6002 26.5302 22.5722 26.5302 22.5162C26.5302 22.4603 26.5019 22.4324 26.4458 22.4324C26.3905 22.4324 26.3614 22.4045 26.3614 22.3514C26.3614 22.2992 26.3275 22.2655 26.2666 22.2569C26.2055 22.2483 26.1668 22.2099 26.1582 22.1491C26.1496 22.0885 26.1157 22.0548 26.0634 22.0548C26.0101 22.0548 25.982 22.0258 25.982 21.9708C25.982 21.915 25.9538 21.887 25.8976 21.887C25.8413 21.887 25.8132 21.8591 25.8132 21.8031C25.8132 21.7472 25.7851 21.7193 25.729 21.7193C25.6582 21.7193 25.6446 21.6911 25.6446 21.5466V21.3741L25.8344 21.4022C26.0172 21.4295 26.0241 21.4267 26.0241 21.3232C26.0241 21.2437 26.0459 21.2158 26.1083 21.2158C26.1647 21.2158 26.1928 21.1879 26.1928 21.1318C26.1928 21.0852 26.2208 21.0481 26.256 21.0481C26.2912 21.0481 26.3193 21.0107 26.3193 20.9641C26.3193 20.9024 26.3473 20.8801 26.4246 20.8801C26.5019 20.8801 26.5302 20.8577 26.5302 20.7963C26.5302 20.7403 26.5583 20.7123 26.6144 20.7123C26.6708 20.7123 26.6988 20.6844 26.6988 20.6283C26.6988 20.5725 26.7269 20.5446 26.783 20.5446C26.8394 20.5446 26.8675 20.5167 26.8675 20.4606C26.8675 20.3908 26.8955 20.3768 27.0361 20.3768C27.1766 20.3768 27.2049 20.3626 27.2049 20.2928C27.2049 20.2368 27.233 20.2089 27.2891 20.2089C27.3465 20.2089 27.3735 20.1809 27.3735 20.121C27.3735 20.0699 27.407 20.0246 27.4539 20.0123C27.4981 20.0007 27.5439 19.9554 27.5553 19.9114C27.5711 19.8514 27.6143 19.8312 27.728 19.8312C27.8513 19.8312 27.8796 19.8158 27.8796 19.7475C27.8796 19.6858 27.9077 19.6635 27.985 19.6635C28.0623 19.6635 28.0903 19.6411 28.0903 19.5797C28.0903 19.5097 28.1184 19.4957 28.259 19.4957C28.3995 19.4957 28.4278 19.4818 28.4278 19.4117C28.4278 19.3559 28.4559 19.328 28.512 19.328C28.5683 19.328 28.5964 19.2998 28.5964 19.244C28.5964 19.1742 28.6245 19.16 28.765 19.16C28.9056 19.16 28.9337 19.146 28.9337 19.0762C28.9337 19.0202 28.9619 18.9923 29.0181 18.9923C29.0742 18.9923 29.1025 18.9643 29.1025 18.9085C29.1025 18.8385 29.1306 18.8245 29.2711 18.8245C29.4117 18.8245 29.4397 18.8105 29.4397 18.7405C29.4397 18.6707 29.4678 18.6567 29.6084 18.6567C29.7474 18.6567 29.7772 18.6424 29.7772 18.5751C29.7772 18.5094 29.8115 18.4911 29.9564 18.4808C30.1054 18.4701 30.1378 18.452 30.149 18.3734C30.1604 18.294 30.1885 18.2791 30.3282 18.2791C30.4659 18.2791 30.494 18.265 30.494 18.1952C30.494 18.1206 30.5221 18.1114 30.747 18.1114C30.9718 18.1114 31.0001 18.1019 31.0001 18.0274C31.0001 17.9574 31.0281 17.9434 31.1687 17.9434C31.3092 17.9434 31.3373 17.9295 31.3373 17.8596C31.3373 17.7851 31.3654 17.7757 31.5904 17.7757C31.8153 17.7757 31.8434 17.7664 31.8434 17.6919C31.8434 17.6165 31.8715 17.6079 32.1174 17.6079C32.3635 17.6079 32.3916 17.5993 32.3916 17.5239C32.3916 17.4444 32.4196 17.4401 32.9186 17.4401C33.4178 17.4401 33.4458 17.4356 33.4458 17.3562C33.4458 17.2782 33.4739 17.2722 33.8463 17.2722C34.219 17.2722 34.247 17.2664 34.247 17.1884C34.247 17.1113 34.2753 17.1044 34.5949 17.1038C34.9977 17.1031 35.1325 17.0759 35.1325 16.9947C35.1325 16.9487 35.232 16.9367 35.6122 16.9367C36.1597 16.9367 36.3554 16.9081 36.3554 16.8284C36.3554 16.7511 37.4886 16.7275 39.4864 16.7631ZM39.9819 21.1318C39.9819 21.2111 40.01 21.2158 40.488 21.2158H40.994V21.3187V21.4214L41.3524 21.3962L41.7109 21.3711V21.4847C41.7109 21.5958 41.7154 21.5977 41.9004 21.5702C42.1431 21.5339 42.3856 21.578 42.3856 21.6581C42.3856 21.7053 42.4479 21.7193 42.6597 21.7193C42.9057 21.7193 42.9337 21.7279 42.9337 21.8031C42.9337 21.8675 42.9618 21.887 43.0551 21.887C43.2964 21.887 43.4398 21.9358 43.4398 22.0181C43.4398 22.0814 43.4715 22.0967 43.6035 22.0967C43.7319 22.0967 43.7721 22.1149 43.7894 22.1807C43.806 22.2442 43.8468 22.2646 43.958 22.2646C44.0692 22.2646 44.11 22.2848 44.1266 22.3484C44.1443 22.4152 44.1842 22.4324 44.3213 22.4324C44.4658 22.4324 44.4941 22.4459 44.4941 22.5162C44.4941 22.5862 44.5221 22.6002 44.6627 22.6002C44.8032 22.6002 44.8313 22.6141 44.8313 22.6841C44.8313 22.7539 44.8594 22.7679 44.9999 22.7679C45.1405 22.7679 45.1688 22.7819 45.1688 22.8519C45.1688 22.9133 45.1968 22.9359 45.2741 22.9359C45.3514 22.9359 45.3795 22.9582 45.3795 23.0197C45.3795 23.0875 45.4076 23.1036 45.5272 23.1036C45.6466 23.1036 45.6746 23.1195 45.6746 23.1874C45.6746 23.2491 45.7029 23.2714 45.7802 23.2714C45.8575 23.2714 45.8856 23.2937 45.8856 23.3554C45.8856 23.4232 45.9136 23.4391 46.0332 23.4391C46.1509 23.4391 46.1807 23.4557 46.1807 23.5201C46.1807 23.5723 46.2146 23.606 46.2757 23.6146C46.3366 23.6232 46.3752 23.6617 46.3841 23.7225C46.3949 23.7985 46.4245 23.8168 46.5372 23.8168C46.6414 23.8168 46.6825 23.838 46.6991 23.9007C46.7123 23.9508 46.7565 23.9845 46.8094 23.9845C46.8694 23.9845 46.8977 24.0114 46.8977 24.0685C46.8977 24.1243 46.9258 24.1525 46.9819 24.1525C47.0383 24.1525 47.0663 24.1804 47.0663 24.2362C47.0663 24.2923 47.0944 24.3202 47.1505 24.3202C47.2069 24.3202 47.235 24.3482 47.235 24.4042C47.235 24.4601 47.263 24.488 47.3194 24.488C47.3896 24.488 47.4036 24.5159 47.4036 24.6557V24.8237H47.235C47.0944 24.8237 47.0663 24.8377 47.0663 24.9075C47.0663 24.9635 47.0383 24.9915 46.9819 24.9915C46.9258 24.9915 46.8977 25.0194 46.8977 25.0755C46.8977 25.1313 46.8694 25.1592 46.8133 25.1592C46.757 25.1592 46.7289 25.1871 46.7289 25.2432C46.7289 25.299 46.7008 25.327 46.6447 25.327C46.5883 25.327 46.5603 25.3551 46.5603 25.411C46.5603 25.4668 46.5322 25.4949 46.4758 25.4949C46.4208 25.4949 46.3916 25.5229 46.3916 25.5759C46.3916 25.6279 46.3578 25.6616 46.2966 25.6702C46.2358 25.6788 46.1971 25.7175 46.1883 25.778C46.1809 25.83 46.15 25.8723 46.1194 25.8723C46.0889 25.8723 46.0542 25.9101 46.0421 25.9563C46.0298 26.0025 45.992 26.0403 45.9577 26.0403C45.9234 26.0403 45.8856 26.0779 45.8733 26.1241C45.8601 26.1743 45.8158 26.2081 45.7629 26.2081C45.7029 26.2081 45.6746 26.2347 45.6746 26.292C45.6746 26.3479 45.6466 26.3758 45.5904 26.3758C45.5341 26.3758 45.506 26.4037 45.506 26.4598C45.506 26.5296 45.4779 26.5436 45.3374 26.5436C45.1968 26.5436 45.1688 26.5296 45.1688 26.4598C45.1688 26.4037 45.1405 26.3758 45.0843 26.3758C45.0282 26.3758 44.9999 26.3479 44.9999 26.292C44.9999 26.236 44.9719 26.2081 44.9157 26.2081C44.8613 26.2081 44.8313 26.1801 44.8313 26.1294C44.8313 26.0704 44.7899 26.0444 44.6627 26.0242C44.5534 26.0068 44.4941 25.9752 44.4941 25.9348C44.4941 25.9005 44.4574 25.8723 44.4127 25.8723C44.3602 25.8723 44.3263 25.8386 44.3177 25.778C44.309 25.7175 44.2704 25.6788 44.2093 25.6702C44.1484 25.6616 44.1145 25.6279 44.1145 25.5759C44.1145 25.5093 44.0843 25.4949 43.9459 25.4949C43.8053 25.4949 43.777 25.481 43.777 25.411C43.777 25.3409 43.749 25.327 43.6084 25.327C43.4679 25.327 43.4398 25.313 43.4398 25.2432C43.4398 25.1871 43.4117 25.1592 43.3554 25.1592C43.2993 25.1592 43.2712 25.1313 43.2712 25.0755C43.2712 25.0054 43.2429 24.9915 43.1023 24.9915C42.9618 24.9915 42.9337 24.9775 42.9337 24.9075C42.9337 24.8306 42.9057 24.8237 42.5965 24.8237C42.2871 24.8237 42.259 24.8166 42.259 24.7397C42.259 24.6643 42.231 24.6557 41.985 24.6557C41.7389 24.6557 41.7109 24.6471 41.7109 24.572C41.7109 24.4974 41.6828 24.488 41.4578 24.488C41.2331 24.488 41.2048 24.4788 41.2048 24.4042C41.2048 24.3288 41.1767 24.3202 40.9308 24.3202C40.6847 24.3202 40.6566 24.3116 40.6566 24.2362C40.6566 24.1587 40.6285 24.1525 40.2824 24.1525C39.8161 24.1525 39.6574 24.1222 39.6328 24.0283C39.6019 23.9106 36.3994 23.9055 36.3685 24.023C36.3437 24.1181 36.1932 24.1525 35.802 24.1525C35.5401 24.1525 35.512 24.1606 35.512 24.2362C35.512 24.3116 35.484 24.3202 35.2381 24.3202C34.9919 24.3202 34.9639 24.3288 34.9639 24.4042C34.9639 24.4811 34.9358 24.488 34.6266 24.488C34.3172 24.488 34.2892 24.4951 34.2892 24.572C34.2892 24.6465 34.2611 24.6557 34.0361 24.6557C33.8114 24.6557 33.7831 24.6652 33.7831 24.7397C33.7831 24.8171 33.755 24.8237 33.4247 24.8237C33.0943 24.8237 33.0663 24.8302 33.0663 24.9075C33.0663 24.9775 33.0382 24.9915 32.8976 24.9915C32.7571 24.9915 32.729 25.0054 32.729 25.0755C32.729 25.1453 32.7007 25.1592 32.5602 25.1592C32.4196 25.1592 32.3916 25.1732 32.3916 25.2432C32.3916 25.299 32.3635 25.327 32.3072 25.327C32.251 25.327 32.223 25.3551 32.223 25.411C32.223 25.4806 32.1949 25.4949 32.0571 25.4949C31.9174 25.4949 31.8894 25.5095 31.8779 25.5892C31.8693 25.6498 31.8307 25.6885 31.7696 25.6971C31.7173 25.7044 31.6748 25.7372 31.6748 25.7699C31.6748 25.807 31.6109 25.8397 31.5059 25.8562C31.379 25.8766 31.3373 25.9024 31.3373 25.9617C31.3373 26.0122 31.3073 26.0403 31.2531 26.0403C31.1968 26.0403 31.1687 26.0682 31.1687 26.1241C31.1687 26.1801 31.1406 26.2081 31.0843 26.2081C31.0281 26.2081 31.0001 26.236 31.0001 26.292C31.0001 26.3479 30.9718 26.3758 30.9157 26.3758C30.8595 26.3758 30.8312 26.4037 30.8312 26.4598C30.8312 26.5343 30.8032 26.5436 30.5784 26.5436C30.3496 26.5436 30.3254 26.5352 30.3254 26.4559C30.3254 26.4033 30.2915 26.3593 30.241 26.346C30.1945 26.3339 30.1565 26.2963 30.1565 26.2622C30.1565 26.228 30.1188 26.1902 30.0723 26.1782C30.0259 26.1662 29.9879 26.1284 29.9879 26.0944C29.9879 26.0603 29.9499 26.0225 29.9037 26.0105C29.8573 25.9984 29.8193 25.9606 29.8193 25.9265C29.8193 25.8925 29.7813 25.8547 29.7349 25.8427C29.6885 25.8307 29.6507 25.7929 29.6507 25.7587C29.6507 25.7246 29.6144 25.6874 29.5701 25.6758C29.5259 25.6644 29.4803 25.6189 29.4687 25.5748C29.4564 25.5282 29.4108 25.4949 29.3594 25.4949C29.2992 25.4949 29.2711 25.4681 29.2711 25.411C29.2711 25.3551 29.243 25.327 29.1867 25.327C29.1165 25.327 29.1025 25.2991 29.1025 25.1592C29.1025 25.0194 29.0885 24.9915 29.0181 24.9915C28.9619 24.9915 28.9337 24.9635 28.9337 24.9075C28.9337 24.8461 28.9056 24.8237 28.8283 24.8237C28.751 24.8237 28.7229 24.8012 28.7229 24.7397C28.7229 24.6931 28.6949 24.6557 28.6597 24.6557C28.6245 24.6557 28.5964 24.6186 28.5964 24.572C28.5964 24.5159 28.6245 24.488 28.6808 24.488C28.737 24.488 28.765 24.4601 28.765 24.4042C28.765 24.3482 28.7931 24.3202 28.8495 24.3202C28.9056 24.3202 28.9337 24.2923 28.9337 24.2362C28.9337 24.1804 28.9619 24.1525 29.0181 24.1525C29.0742 24.1525 29.1025 24.1243 29.1025 24.0685C29.1025 24.0126 29.1306 23.9845 29.1867 23.9845C29.243 23.9845 29.2711 23.9566 29.2711 23.9007C29.2711 23.8447 29.2992 23.8168 29.3555 23.8168C29.4104 23.8168 29.4397 23.7888 29.4397 23.7366C29.4397 23.6761 29.4801 23.6496 29.6043 23.6286C29.717 23.6097 29.7755 23.5755 29.7901 23.5201C29.8027 23.4727 29.848 23.4391 29.8996 23.4391C29.9598 23.4391 29.9879 23.4125 29.9879 23.3554C29.9879 23.2854 30.016 23.2714 30.1565 23.2714C30.2971 23.2714 30.3254 23.2574 30.3254 23.1874C30.3254 23.1316 30.3534 23.1036 30.4096 23.1036C30.4659 23.1036 30.494 23.0757 30.494 23.0197C30.494 22.9498 30.5221 22.9359 30.6626 22.9359C30.8032 22.9359 30.8312 22.9217 30.8312 22.8519C30.8312 22.7819 30.8595 22.7679 31.0001 22.7679C31.138 22.7679 31.1687 22.7533 31.1687 22.6878C31.1687 22.6268 31.2093 22.6008 31.3373 22.5791C31.4409 22.5617 31.5059 22.528 31.5059 22.4917C31.5059 22.4502 31.5582 22.4324 31.6787 22.4324C31.8158 22.4324 31.8557 22.4152 31.8734 22.3484C31.8907 22.2827 31.9308 22.2646 32.0591 22.2646C32.1949 22.2646 32.223 22.2503 32.223 22.1807C32.223 22.1106 32.251 22.0967 32.3916 22.0967C32.5321 22.0967 32.5602 22.0827 32.5602 22.0129C32.5602 21.9493 32.5885 21.9289 32.6761 21.9285C32.9013 21.9276 33.1084 21.8759 33.1084 21.8205C33.1084 21.7519 33.3295 21.7075 33.5767 21.7262C33.744 21.7388 33.7634 21.7305 33.7762 21.6417C33.7898 21.5449 33.7958 21.5438 34.124 21.5726L34.4578 21.602V21.488V21.3737L34.8162 21.4033L35.1748 21.433V21.3245V21.2158H35.6807C36.1587 21.2158 36.1867 21.2111 36.1867 21.1318C36.1867 21.0491 36.2148 21.0481 38.0843 21.0481C39.9538 21.0481 39.9819 21.0491 39.9819 21.1318ZM39.3389 25.3534C39.391 25.3674 39.4337 25.4049 39.4337 25.4367C39.4337 25.481 39.508 25.4949 39.7448 25.4949C40.1671 25.4949 40.3068 25.5272 40.3342 25.6313C40.3548 25.7089 40.3785 25.7142 40.5948 25.6889C40.8073 25.664 40.8351 25.6698 40.8541 25.742C40.8801 25.8408 40.9841 25.871 41.2998 25.8719C41.5139 25.8723 41.5422 25.8822 41.5422 25.9563C41.5422 26.0263 41.5703 26.0403 41.7109 26.0403C41.8514 26.0403 41.8795 26.0543 41.8795 26.1241C41.8795 26.1941 41.9078 26.2081 42.0483 26.2081C42.1889 26.2081 42.2169 26.222 42.2169 26.292C42.2169 26.3634 42.245 26.3758 42.4067 26.3758C42.5682 26.3758 42.5965 26.3883 42.5965 26.4598C42.5965 26.5296 42.6246 26.5436 42.7651 26.5436C42.9057 26.5436 42.9337 26.5577 42.9337 26.6276C42.9337 26.6976 42.9618 26.7115 43.1023 26.7115C43.2429 26.7115 43.2712 26.7255 43.2712 26.7953C43.2712 26.8514 43.2993 26.8793 43.3554 26.8793C43.4117 26.8793 43.4398 26.9072 43.4398 26.9633C43.4398 27.0191 43.4679 27.047 43.5242 27.047C43.5804 27.047 43.6084 27.075 43.6084 27.131C43.6084 27.186 43.6365 27.2148 43.6898 27.2148C43.7421 27.2148 43.7762 27.2485 43.7848 27.3093C43.7954 27.3845 43.8293 27.4062 43.9519 27.4165C44.0625 27.4255 44.1119 27.4522 44.1272 27.5108C44.1402 27.56 44.1851 27.5924 44.2402 27.5924C44.3643 27.5924 44.3365 27.7346 44.2089 27.7526C44.1484 27.7612 44.1145 27.7952 44.1145 27.8472C44.1145 27.9002 44.0854 27.9281 44.0301 27.9281C43.974 27.9281 43.9459 27.9561 43.9459 28.0119C43.9459 28.068 43.9176 28.0959 43.8615 28.0959C43.8053 28.0959 43.777 28.1238 43.777 28.1799C43.777 28.2357 43.749 28.2636 43.6928 28.2636C43.6365 28.2636 43.6084 28.2916 43.6084 28.3476C43.6084 28.4035 43.5804 28.4316 43.5242 28.4316C43.4538 28.4316 43.4398 28.4595 43.4398 28.5994C43.4398 28.7392 43.4258 28.7671 43.3554 28.7671C43.2993 28.7671 43.2712 28.795 43.2712 28.8511C43.2712 28.907 43.2429 28.9349 43.1868 28.9349C43.1306 28.9349 43.1023 28.9628 43.1023 29.0189C43.1023 29.0747 43.0743 29.1028 43.0181 29.1028C42.9618 29.1028 42.9337 29.1308 42.9337 29.1866C42.9337 29.2427 42.9057 29.2706 42.8495 29.2706C42.7919 29.2706 42.7651 29.2985 42.7651 29.3585C42.7651 29.4096 42.7314 29.4549 42.6846 29.4671C42.6403 29.4787 42.5948 29.5241 42.5831 29.5681C42.5516 29.6886 42.0483 29.6884 42.0483 29.5679C42.0483 29.5071 42.0075 29.4809 41.8795 29.4594C41.7514 29.4377 41.7109 29.4117 41.7109 29.3507C41.7109 29.2985 41.6815 29.2706 41.6264 29.2706C41.5703 29.2706 41.5422 29.2427 41.5422 29.1866C41.5422 29.1168 41.5142 29.1028 41.3736 29.1028C41.2331 29.1028 41.2048 29.0887 41.2048 29.0189C41.2048 28.9488 41.1767 28.9349 41.0361 28.9349C40.8956 28.9349 40.8675 28.9209 40.8675 28.8511C40.8675 28.7764 40.8395 28.7671 40.6145 28.7671C40.3895 28.7671 40.3614 28.7579 40.3614 28.6831C40.3614 28.608 40.3334 28.5994 40.0875 28.5994C39.8413 28.5994 39.8133 28.5908 39.8133 28.5154C39.8133 28.4385 39.7852 28.4316 39.476 28.4316C39.1666 28.4316 39.1386 28.4245 39.1386 28.3476C39.1386 28.2658 39.1105 28.2636 38.0001 28.2636C36.8895 28.2636 36.8614 28.2658 36.8614 28.3476C36.8614 28.4245 36.8334 28.4316 36.5242 28.4316C36.2148 28.4316 36.1867 28.4385 36.1867 28.5154C36.1867 28.5899 36.1587 28.5994 35.9337 28.5994C35.7089 28.5994 35.6807 28.6086 35.6807 28.6831C35.6807 28.7547 35.6526 28.7671 35.4909 28.7671C35.3294 28.7671 35.3013 28.7796 35.3013 28.8511C35.3013 28.9209 35.273 28.9349 35.1325 28.9349C34.9919 28.9349 34.9639 28.9488 34.9639 29.0189C34.9639 29.0887 34.9358 29.1028 34.7952 29.1028C34.6573 29.1028 34.6266 29.1172 34.6266 29.183C34.6266 29.2438 34.5858 29.27 34.4578 29.2914C34.3297 29.3131 34.2892 29.3391 34.2892 29.4001C34.2892 29.4523 34.2598 29.4802 34.2047 29.4802C34.1486 29.4802 34.1205 29.5084 34.1205 29.5642C34.1205 29.6257 34.0925 29.6482 34.0152 29.6482C33.9377 29.6482 33.9096 29.6705 33.9096 29.732C33.9096 29.7786 33.8815 29.816 33.8463 29.816C33.8114 29.816 33.7831 29.7786 33.7831 29.732C33.7831 29.6748 33.755 29.6482 33.6948 29.6482C33.6421 29.6482 33.5976 29.6145 33.5844 29.5642C33.5723 29.518 33.5376 29.4802 33.5071 29.4802C33.4765 29.4802 33.4456 29.4379 33.4383 29.3859C33.4294 29.3252 33.3908 29.2867 33.3299 29.2781C33.2688 29.2695 33.2349 29.2358 33.2349 29.1838C33.2349 29.1308 33.2057 29.1028 33.1507 29.1028C33.0943 29.1028 33.0663 29.0747 33.0663 29.0189C33.0663 28.9628 33.0382 28.9349 32.9819 28.9349C32.9257 28.9349 32.8976 28.907 32.8976 28.8511C32.8976 28.795 32.8696 28.7671 32.8132 28.7671C32.7571 28.7671 32.729 28.7392 32.729 28.6831C32.729 28.6273 32.7007 28.5994 32.6446 28.5994C32.5883 28.5994 32.5602 28.5714 32.5602 28.5154C32.5602 28.4595 32.5321 28.4316 32.476 28.4316C32.4196 28.4316 32.3916 28.4035 32.3916 28.3476C32.3916 28.2916 32.3635 28.2636 32.3072 28.2636C32.251 28.2636 32.223 28.2357 32.223 28.1799C32.223 28.1238 32.1949 28.0959 32.1385 28.0959C32.0824 28.0959 32.0543 28.068 32.0543 28.0119C32.0543 27.9561 32.026 27.9281 31.9699 27.9281C31.9125 27.9281 31.8855 27.9002 31.8855 27.8403C31.8855 27.7877 31.8516 27.7436 31.8013 27.7305C31.6445 27.6897 31.7041 27.5924 31.8855 27.5924C32.026 27.5924 32.0543 27.5785 32.0543 27.5086C32.0543 27.4526 32.0824 27.4247 32.1385 27.4247C32.2005 27.4247 32.223 27.3967 32.223 27.3198C32.223 27.2429 32.2454 27.2148 32.3072 27.2148C32.3635 27.2148 32.3916 27.1869 32.3916 27.131C32.3916 27.061 32.4196 27.047 32.5602 27.047C32.7007 27.047 32.729 27.0331 32.729 26.9633C32.729 26.9072 32.7571 26.8793 32.8132 26.8793C32.8696 26.8793 32.8976 26.8514 32.8976 26.7953C32.8976 26.7255 32.9257 26.7115 33.0663 26.7115C33.2068 26.7115 33.2349 26.6976 33.2349 26.6276C33.2349 26.5577 33.263 26.5436 33.4037 26.5436C33.5443 26.5436 33.5723 26.5296 33.5723 26.4598C33.5723 26.3883 33.6004 26.3758 33.7621 26.3758C33.9236 26.3758 33.9519 26.3634 33.9519 26.292C33.9519 26.222 33.98 26.2081 34.1205 26.2081C34.2611 26.2081 34.2892 26.1941 34.2892 26.1241C34.2892 26.0543 34.3172 26.0403 34.4578 26.0403C34.5983 26.0403 34.6266 26.0263 34.6266 25.9563C34.6266 25.8818 34.6547 25.8723 34.8794 25.8723C35.1044 25.8723 35.1325 25.8631 35.1325 25.7886C35.1325 25.6986 35.1556 25.6936 35.5964 25.687C35.8035 25.684 35.8298 25.6737 35.8417 25.5892C35.8545 25.5005 35.875 25.4949 36.1898 25.4949C36.4516 25.4949 36.5242 25.4818 36.5242 25.4348C36.5242 25.4019 36.5667 25.3667 36.619 25.3566C36.7679 25.328 39.2329 25.3253 39.3389 25.3534ZM38.759 30.2337C38.759 30.3078 38.7938 30.3171 39.107 30.328C39.4363 30.3396 39.4555 30.3456 39.4689 30.4393C39.481 30.5244 39.5002 30.5347 39.606 30.5136C39.7697 30.4812 39.9819 30.5263 39.9819 30.5935C39.9819 30.6236 40.0549 30.6599 40.1464 30.6751C40.2591 30.6943 40.3176 30.7284 40.3323 30.7838C40.3483 30.8448 40.3908 30.8648 40.505 30.8648C40.6285 30.8648 40.6566 30.8803 40.6566 30.9486C40.6566 31.0029 40.6847 31.0326 40.736 31.0326C40.7801 31.0326 40.8254 31.0699 40.8375 31.1165C40.8544 31.1801 40.8952 31.2003 41.0061 31.2003C41.1173 31.2003 41.1581 31.2207 41.175 31.2843C41.1881 31.3343 41.2324 31.3681 41.2853 31.3681C41.3453 31.3681 41.3736 31.3949 41.3736 31.4521C41.3736 31.5079 41.4017 31.536 41.4578 31.536C41.5142 31.536 41.5422 31.564 41.5422 31.6198C41.5422 31.6759 41.5703 31.7038 41.6264 31.7038C41.6828 31.7038 41.7109 31.7317 41.7109 31.7878C41.7109 31.8576 41.7389 31.8715 41.8795 31.8715H42.0483V32.0393C42.0483 32.1791 42.0623 32.2073 42.1325 32.2073C42.1889 32.2073 42.2169 32.2352 42.2169 32.291C42.2169 32.3471 42.245 32.375 42.3011 32.375C42.373 32.375 42.3856 32.4029 42.3856 32.5638C42.3856 32.7245 42.3981 32.7526 42.47 32.7526C42.5401 32.7526 42.5542 32.7806 42.5542 32.9204C42.5542 33.0602 42.5682 33.0881 42.6386 33.0881C42.7055 33.0881 42.723 33.1163 42.7234 33.2245C42.7243 33.434 42.7651 33.5399 42.8534 33.5628C42.9214 33.5805 42.9337 33.6232 42.9337 33.8395C42.9337 34.067 42.943 34.0951 43.0181 34.0951C43.1004 34.0951 43.1023 34.123 43.1023 35.2067C43.1023 36.2815 43.0998 36.3184 43.0201 36.3184C42.9486 36.3184 42.9361 36.3528 42.9253 36.5807C42.9139 36.82 42.9039 36.844 42.8133 36.8569C42.7278 36.869 42.7172 36.8881 42.7383 36.9933C42.7768 37.1847 42.7256 37.3673 42.6334 37.3673C42.5691 37.3673 42.5542 37.3991 42.5542 37.535C42.5542 37.6749 42.5401 37.703 42.47 37.703C42.4074 37.703 42.3856 37.7309 42.3856 37.8115C42.3856 37.9148 42.3776 37.9187 42.2169 37.8916C42.0593 37.8652 42.0485 37.8697 42.0531 37.9614C42.0567 38.0325 42.0632 38.0394 42.0772 37.9861C42.1135 37.8484 42.2169 37.9028 42.2169 38.0596C42.2169 38.1783 42.2007 38.2063 42.1325 38.2063C42.0764 38.2063 42.0483 38.2344 42.0483 38.2903C42.0483 38.3461 42.02 38.3742 41.9639 38.3742C41.9019 38.3742 41.8795 38.4022 41.8795 38.4791C41.8795 38.556 41.857 38.5839 41.7953 38.5839C41.7389 38.5839 41.7109 38.6118 41.7109 38.6679C41.7109 38.7237 41.6828 38.7516 41.6264 38.7516C41.5703 38.7516 41.5422 38.7798 41.5422 38.8356C41.5422 38.8915 41.5142 38.9196 41.4578 38.9196C41.4017 38.9196 41.3736 38.9475 41.3736 39.0034C41.3736 39.0749 41.3453 39.0874 41.1838 39.0874C41.0221 39.0874 40.994 39.0998 40.994 39.1713C40.994 39.2411 40.966 39.2551 40.8254 39.2551C40.6847 39.2551 40.6566 39.2691 40.6566 39.3391C40.6566 39.3949 40.6285 39.4229 40.5724 39.4229C40.516 39.4229 40.488 39.451 40.488 39.5068C40.488 39.5769 40.4599 39.5908 40.3193 39.5908C40.1788 39.5908 40.1507 39.6048 40.1507 39.6746C40.1507 39.7491 40.1224 39.7586 39.8977 39.7586C39.6727 39.7586 39.6446 39.7678 39.6446 39.8426C39.6446 39.9178 39.6166 39.9263 39.3705 39.9263C39.1245 39.9263 39.0965 39.9349 39.0965 40.0103C39.0965 40.0919 39.0682 40.0941 38.0001 40.0941C36.9318 40.0941 36.9035 40.0919 36.9035 40.0103C36.9035 39.9349 36.8755 39.9263 36.6296 39.9263C36.3836 39.9263 36.3554 39.9178 36.3554 39.8426C36.3554 39.7726 36.3273 39.7586 36.1867 39.7586C36.0462 39.7586 36.0181 39.7446 36.0181 39.6746C36.0181 39.6048 35.99 39.5908 35.8495 39.5908C35.7089 39.5908 35.6807 39.5769 35.6807 39.5068C35.6807 39.4368 35.6526 39.4229 35.512 39.4229C35.3715 39.4229 35.3434 39.4089 35.3434 39.3391C35.3434 39.2774 35.3153 39.2551 35.2381 39.2551C35.1608 39.2551 35.1325 39.2328 35.1325 39.1713C35.1325 39.1013 35.1044 39.0874 34.9639 39.0874C34.8233 39.0874 34.7952 39.0734 34.7952 39.0034C34.7952 38.9336 34.7672 38.9196 34.6266 38.9196C34.4861 38.9196 34.4578 38.9056 34.4578 38.8356C34.4578 38.7798 34.4297 38.7516 34.3736 38.7516C34.3116 38.7516 34.2892 38.7237 34.2892 38.6468C34.2892 38.5699 34.2667 38.542 34.2047 38.542C34.1365 38.542 34.1205 38.5141 34.1205 38.3951C34.1205 38.2763 34.1043 38.2484 34.0361 38.2484C33.9744 38.2484 33.9519 38.2202 33.9519 38.1433C33.9519 38.0664 33.9292 38.0385 33.8675 38.0385C33.7971 38.0385 33.7831 38.0106 33.7831 37.8708C33.7831 37.7309 33.769 37.703 33.6989 37.703C33.6242 37.703 33.6138 37.6729 33.6086 37.4407C33.6056 37.2964 33.5948 37.221 33.5847 37.273C33.5521 37.4414 33.4458 37.3853 33.4458 37.1995C33.4458 37.0597 33.4318 37.0318 33.3614 37.0318C33.2824 37.0318 33.2772 37.0036 33.2772 36.5912C33.2772 36.1885 33.2703 36.1507 33.198 36.1507C33.0848 36.1507 33.0663 36.0063 33.0663 35.1229C33.0663 34.2375 33.0846 34.0951 33.1988 34.0951C33.2647 34.0951 33.277 34.0674 33.2694 33.9377C33.2507 33.618 33.2755 33.4239 33.3351 33.4239C33.3953 33.4239 33.4458 33.2492 33.4458 33.0409C33.4458 32.9483 33.4653 32.9204 33.53 32.9204C33.6004 32.9204 33.6145 32.8925 33.6145 32.7526C33.6145 32.6128 33.6285 32.5847 33.6989 32.5847C33.7686 32.5847 33.7831 32.5567 33.7831 32.4219C33.7831 32.2943 33.8014 32.2541 33.8675 32.2369C33.918 32.2238 33.9519 32.1798 33.9519 32.1272C33.9519 32.0674 33.9787 32.0393 34.0361 32.0393C34.0925 32.0393 34.1205 32.0114 34.1205 31.9555C34.1205 31.8855 34.1486 31.8715 34.2892 31.8715C34.4297 31.8715 34.4578 31.8576 34.4578 31.7878C34.4578 31.7317 34.4861 31.7038 34.5422 31.7038C34.5983 31.7038 34.6266 31.6759 34.6266 31.6198C34.6266 31.564 34.6547 31.536 34.7108 31.536C34.7672 31.536 34.7952 31.5079 34.7952 31.4521C34.7952 31.3962 34.8233 31.3681 34.8794 31.3681C34.9358 31.3681 34.9639 31.3401 34.9639 31.2843C34.9639 31.2227 34.9919 31.2003 35.0692 31.2003C35.145 31.2003 35.1748 31.1778 35.1748 31.1202C35.1748 31.0592 35.2154 31.033 35.3434 31.0115C35.441 30.9952 35.512 30.9597 35.512 30.9277C35.512 30.8955 35.5833 30.8601 35.6807 30.8438C35.8087 30.8223 35.8495 30.7961 35.8495 30.7353C35.8495 30.6696 35.8801 30.655 36.0181 30.655C36.1587 30.655 36.1867 30.641 36.1867 30.571C36.1867 30.5012 36.2148 30.4872 36.3554 30.4872C36.4959 30.4872 36.5242 30.4732 36.5242 30.4032C36.5242 30.3259 36.5523 30.3194 36.8826 30.3194C37.2129 30.3194 37.241 30.3128 37.241 30.2355C37.241 30.1547 37.2691 30.1515 38.0001 30.1515C38.7258 30.1515 38.759 30.1551 38.759 30.2337Z" fill="white"/>
</svg>
