<svg width="35" height="35" viewBox="0 0 35 35" fill="none" xmlns="http://www.w3.org/2000/svg">
<path d="M6.15704 28.8429C6.83352 29.5203 7.6372 30.0574 8.5219 30.4233C9.40659 30.7892 10.3549 30.9767 11.3122 30.975C12.2698 30.9766 13.2183 30.7891 14.1032 30.4233C14.9882 30.0574 15.7921 29.5203 16.4689 28.8429L20.5931 24.7172L18.531 22.6552L14.4068 26.7808C13.585 27.5989 12.4726 28.0582 11.313 28.0582C10.1534 28.0582 9.04094 27.5989 8.21912 26.7808C7.40027 25.9593 6.94046 24.8468 6.94046 23.6869C6.94046 22.5271 7.40027 21.4145 8.21912 20.5931L12.3447 16.4689L10.2827 14.4068L6.15704 18.531C4.79176 19.8996 4.02502 21.7538 4.02502 23.6869C4.02502 25.6201 4.79176 27.4743 6.15704 28.8429V28.8429ZM28.8429 16.4689C30.2074 15.1 30.9737 13.2459 30.9737 11.313C30.9737 9.38007 30.2074 7.526 28.8429 6.15704C27.4743 4.79176 25.6201 4.02502 23.6869 4.02502C21.7538 4.02502 19.8996 4.79176 18.531 6.15704L14.4068 10.2827L16.4689 12.3447L20.5931 8.21912C21.4149 7.40098 22.5273 6.94166 23.6869 6.94166C24.8466 6.94166 25.959 7.40098 26.7808 8.21912C27.5996 9.04056 28.0594 10.1531 28.0594 11.313C28.0594 12.4728 27.5996 13.5854 26.7808 14.4068L22.6552 18.531L24.7172 20.5931L28.8429 16.4689Z" fill="#FF3E3E"/>
<path d="M12.0635 24.4375L10 22.3754L22.3769 10L24.439 12.0635L12.0635 24.4375Z" fill="#FF3E3E"/>
</svg>
